<?xml version="1.0" encoding="UTF-8" standalone="no"?>
<!-- Created with Inkscape (http://www.inkscape.org/) -->

<svg
   xmlns:dc="http://purl.org/dc/elements/1.1/"
   xmlns:cc="http://creativecommons.org/ns#"
   xmlns:rdf="http://www.w3.org/1999/02/22-rdf-syntax-ns#"
   xmlns:svg="http://www.w3.org/2000/svg"
   xmlns="http://www.w3.org/2000/svg"
   xmlns:sodipodi="http://sodipodi.sourceforge.net/DTD/sodipodi-0.dtd"
   xmlns:inkscape="http://www.inkscape.org/namespaces/inkscape"
   version="1.2"
   width="20mm"
   height="20mm"
   viewBox="0 0 1800 1000"
   preserveAspectRatio="xMidYMid"
   id="svg90"
   sodipodi:docname="logo.svg"
   inkscape:version="0.92.1 r15371"
   inkscape:export-filename="C:\projects\midi-sounds-react\logo.png"
   inkscape:export-xdpi="770.52716"
   inkscape:export-ydpi="770.52716">
  <metadata
     id="metadata96">
    <rdf:RDF>
      <cc:Work
         rdf:about="">
        <dc:format>image/svg+xml</dc:format>
        <dc:type
           rdf:resource="http://purl.org/dc/dcmitype/StillImage" />
      </cc:Work>
    </rdf:RDF>
  </metadata>
  <defs
     id="defs94" />
  <sodipodi:namedview
     pagecolor="#ffffff"
     bordercolor="#666666"
     borderopacity="1"
     objecttolerance="10"
     gridtolerance="10"
     guidetolerance="10"
     inkscape:pageopacity="0"
     inkscape:pageshadow="2"
     inkscape:window-width="1366"
     inkscape:window-height="715"
     id="namedview92"
     showgrid="false"
     inkscape:zoom="7.2495833"
     inkscape:cx="37.795276"
     inkscape:cy="40.076574"
     inkscape:window-x="-8"
     inkscape:window-y="-8"
     inkscape:window-maximized="1"
     inkscape:current-layer="svg90" />
  <g
     id="g88"
     inkscape:export-xdpi="982.80304"
     inkscape:export-ydpi="982.80304"
     transform="matrix(0.73451652,0,0,0.73451652,157.66423,170.80108)">
    <g
       id="g86">
      <g
         id="g84">
        <g
           id="g82">
          <g
             id="g80">
            <g
               id="g24">
              <g
                 id="g22">
                <path
                   d="M 924,0 H 750 v 630 h 174 z"
                   id="path20"
                   inkscape:connector-curvature="0"
                   style="fill:#6f917c;stroke:none" />
              </g>
            </g>
            <g
               id="g30">
              <g
                 id="g28">
                <path
                   d="m 1794,0 h -174 v 630 h 174 z"
                   id="path26"
                   inkscape:connector-curvature="0"
                   style="fill:#6f917c;stroke:none" />
              </g>
            </g>
            <g
               id="g36">
              <g
                 id="g34">
                <path
                   d="m 1160,479 h 226 V 151 H 987 V 0 h 509 c 32,0 61,26 61,60 v 510 c 0,34 -29,60 -61,60 H 987 V 240 h 173 z"
                   id="path32"
                   inkscape:connector-curvature="0"
                   style="fill:#6f917c;stroke:none" />
              </g>
            </g>
            <g
               id="g42">
              <g
                 id="g40">
                <path
                   d="M 624,0 H 513 0 V 630 H 171 V 151 h 87 V 630 H 427 V 151 h 86 V 630 H 686 V 60 C 686,26 660,0 624,0 Z"
                   id="path38"
                   inkscape:connector-curvature="0"
                   style="fill:#6f917c;stroke:none" />
              </g>
            </g>
            <g
               id="g48">
              <g
                 id="g46">
                <path
                   d="M 256,842 H 148 v -33 c 0,-16 -1,-26 -4,-30 -3,-4 -7,-6 -14,-6 -7,0 -12,3 -16,8 -3,6 -5,15 -5,26 0,15 2,26 6,34 4,7 15,17 33,27 52,31 84,56 98,76 13,20 20,51 20,95 0,32 -4,55 -11,71 -8,15 -22,27 -43,38 -22,10 -47,15 -75,15 -31,0 -58,-6 -80,-18 -22,-12 -36,-27 -43,-45 -7,-18 -10,-44 -10,-77 v -30 h 108 v 55 c 0,16 1,27 4,32 3,5 9,7 16,7 8,0 14,-3 18,-9 3,-6 5,-15 5,-27 0,-26 -3,-44 -10,-52 -8,-8 -26,-21 -55,-40 C 61,940 42,926 33,917 23,908 15,896 9,881 3,866 0,846 0,823 c 0,-35 4,-60 13,-75 9,-16 23,-29 43,-37 19,-9 43,-14 70,-14 31,0 56,5 78,15 21,9 35,22 42,37 7,14 10,39 10,75 z"
                   id="path44"
                   inkscape:connector-curvature="0"
                   style="fill:#6f917c;stroke:none" />
              </g>
            </g>
            <g
               id="g54">
              <g
                 id="g52">
                <path
                   d="m 567,968 c 0,45 -1,77 -3,96 -2,18 -9,35 -20,51 -11,15 -26,27 -45,35 -19,9 -41,13 -66,13 -24,0 -46,-4 -65,-12 -19,-8 -34,-19 -46,-35 -12,-16 -18,-33 -21,-51 -2,-19 -3,-51 -3,-97 v -76 c 0,-45 1,-77 3,-96 2,-18 9,-35 20,-51 11,-15 26,-27 45,-36 19,-8 41,-12 67,-12 24,0 45,4 64,12 19,8 35,19 46,35 12,16 19,33 21,51 2,18 3,51 3,97 z M 451,821 c 0,-21 -1,-34 -4,-40 -2,-5 -7,-8 -14,-8 -6,0 -11,2 -14,7 -3,4 -5,18 -5,41 v 209 c 0,26 1,42 3,48 3,6 8,9 15,9 8,0 13,-3 16,-10 2,-7 3,-24 3,-50 z"
                   id="path50"
                   inkscape:connector-curvature="0"
                   style="fill:#6f917c;stroke:none" />
              </g>
            </g>
            <g
               id="g60">
              <g
                 id="g58">
                <path
                   d="m 875,707 v 299 c 0,34 -1,57 -3,71 -2,14 -9,28 -20,43 -11,14 -25,25 -43,32 -17,8 -38,11 -63,11 -26,0 -50,-4 -70,-13 -21,-9 -36,-20 -46,-34 -10,-15 -16,-29 -18,-45 -2,-16 -3,-49 -3,-99 V 707 h 116 v 335 c 0,20 1,32 3,38 3,5 7,8 13,8 8,0 13,-3 15,-9 2,-6 3,-20 3,-43 V 707 Z"
                   id="path56"
                   inkscape:connector-curvature="0"
                   style="fill:#6f917c;stroke:none" />
              </g>
            </g>
            <g
               id="g66">
              <g
                 id="g64">
                <path
                   d="m 1179,707 v 447 h -102 l -61,-203 v 203 H 919 V 707 h 97 l 66,201 V 707 Z"
                   id="path62"
                   inkscape:connector-curvature="0"
                   style="fill:#6f917c;stroke:none" />
              </g>
            </g>
            <g
               id="g72">
              <g
                 id="g70">
                <path
                   d="m 1224,707 h 87 c 56,0 94,3 114,8 20,5 35,13 45,25 11,12 17,25 20,40 2,14 4,42 4,85 v 156 c 0,40 -2,67 -6,81 -4,13 -10,24 -20,32 -9,7 -21,13 -35,16 -13,3 -34,4 -62,4 h -147 z m 116,76 v 295 c 17,0 28,-4 31,-10 4,-7 6,-25 6,-55 V 839 c 0,-20 0,-33 -2,-39 -1,-6 -4,-10 -9,-12 -4,-3 -13,-5 -26,-5 z"
                   id="path68"
                   inkscape:connector-curvature="0"
                   style="fill:#6f917c;stroke:none" />
              </g>
            </g>
            <g
               id="g78">
              <g
                 id="g76">
                <path
                   d="m 1782,842 h -108 v -33 c 0,-16 -1,-26 -4,-30 -3,-4 -7,-6 -14,-6 -7,0 -12,3 -16,8 -3,6 -5,15 -5,26 0,15 2,26 6,34 4,7 15,17 33,27 52,31 84,56 98,76 13,20 20,51 20,95 0,32 -4,55 -11,71 -8,15 -22,27 -43,38 -22,10 -47,15 -75,15 -31,0 -58,-6 -80,-18 -22,-12 -36,-27 -43,-45 -7,-18 -10,-44 -10,-77 v -30 h 108 v 55 c 0,16 1,27 4,32 3,5 9,7 16,7 8,0 14,-3 18,-9 3,-6 5,-15 5,-27 0,-26 -3,-44 -10,-52 -8,-8 -26,-21 -55,-40 -29,-19 -48,-33 -57,-42 -10,-9 -18,-21 -24,-36 -6,-15 -9,-35 -9,-58 0,-35 4,-60 13,-75 9,-16 23,-29 43,-37 19,-9 43,-14 70,-14 31,0 56,5 78,15 21,9 35,22 42,37 7,14 10,39 10,75 z"
                   id="path74"
                   inkscape:connector-curvature="0"
                   style="fill:#6f917c;stroke:none" />
              </g>
            </g>
          </g>
        </g>
      </g>
    </g>
  </g>
</svg>
